# xmcd
#
# Track frame offsets:
#	150
#	19262
#	45455
#	77235
#	100505
#	126943
#	151473
#	169731
#	185828
#	207405
# Disc length: 2997 seconds
# Revision: 1
# Processed by: cddbd v1.5.1PL2 Copyright (c) Steve Scherf et al.
#
# Submitted via: libkcddb 0.31
#
DISCID=820bb30a
DTITLE=Cassandra Wilson - Thunderbird
DYEAR=2006
DGENRE=Jazz
TTITLE0=Go to Mexico
TTITLE1=Closer to You
TTITLE2=Easy Rider
TTITLE3=It Would be So Easy
TTITLE4=Red River Valley
TTITLE5=Poet
TTITLE6=I Want to be Loevd
TTITLE7=Lost
TTITLE8=Strike a Match
TTITLE9=Tarot
EXTD=YEAR: 2006
EXTT0=
EXTT1=
EXTT2=
EXTT3=
EXTT4=
EXTT5=
EXTT6=
EXTT7=
EXTT8=
EXTT9=
PLAYORDER=
